<?xml version="1.0" encoding="UTF-8"?>
<svg id="Layer_1" data-name="Layer 1" xmlns="http://www.w3.org/2000/svg" viewBox="0 0 215 33">
  <defs>
    <style>
      .cls-1 {
        fill: #b7b7b7;
      }

      .cls-2 {
        fill: rgba(183, 183, 183, .6);
      }
    </style>
  </defs>
  <path class="cls-2" d="m194.4.94c-.25,0-.46.2-.47.46v8.1l.75.43c.55.32,1.18.5,1.81.49,1.96,0,3.55-1.57,3.55-3.51V1.39c0-.25-.21-.46-.46-.46h-5.18Zm11.72,15.56l-.75.43c-1.69.93-2.31,3.06-1.38,4.75.31.57.77,1.04,1.34,1.36l4.82,2.76c.22.13.5.05.63-.17l2.59-4.45c.13-.22.05-.49-.16-.62,0,0,0,0,0,0,0,0-7.08-4.05-7.08-4.05Zm-15.48,2.58c-.7-.05-1.41.11-2.02.46l-4.82,2.75c-.22.12-.3.4-.17.62,0,0,0,0,0,0l2.59,4.45c.13.22.41.29.63.17l7.08-4.05v-.85c0-.63-.15-1.26-.47-1.81-.59-1.02-1.65-1.67-2.82-1.75Z"/>
  <path class="cls-1" d="m186.66,5.38c-.18-.02-.36.07-.46.23l-2.59,4.44c-.13.22-.05.51.17.63,0,0,0,0,0,0l7.15,4.09c.88.48,1.89.76,2.97.76,3.38,0,6.13-2.72,6.13-6.07v-.84s.01-1.72.01-1.72c0,1.94-1.59,3.52-3.55,3.52-.64,0-1.26-.17-1.81-.49l-7.85-4.49c-.05-.03-.11-.05-.18-.06h0Zm23.67,1.76c-.06,0-.12.03-.17.06l-7.15,4.09c-.89.53-1.63,1.27-2.15,2.17-1.69,2.9-.68,6.62,2.25,8.3l.73.43,1.5.86c-1.68-.95-2.27-3.09-1.32-4.77.32-.56.79-1.03,1.36-1.34l7.84-4.49c.22-.12.3-.4.17-.62,0,0,0,0,0-.01l-2.59-4.44c-.1-.16-.28-.25-.46-.23h0Zm-15.99,10.34c-1.22-.09-2.43.19-3.49.8l-.74.41-1.5.85c1.7-.97,3.87-.4,4.85,1.29.33.57.48,1.19.47,1.81v8.98c0,.25.21.46.46.46,0,0,0,0,0,0h5.17c.26,0,.47-.21.47-.46,0,0,0,0,0,0v-8.18c-.02-1.03-.3-2.04-.82-2.93-1.03-1.75-2.85-2.89-4.88-3.02h0ZM80.45,7.53v17.99h3.9s0,0,0,0V7.53h-3.9Zm11.21,0v17.99h3.9v-15.07h11.27c1.33,0,2.41,1.07,2.42,2.4h0v12.67h3.86v-12.75c0-2.9-2.37-5.24-5.29-5.24,0,0-16.16,0-16.16,0Zm-85.32,0c-2.92,0-5.29,2.35-5.29,5.24v7.51c0,2.89,2.37,5.24,5.29,5.24h11.88c2.92,0,5.29-2.34,5.29-5.24v-5.1h-10.83v2.91h7.06s0,1.96,0,1.96c0,1.37-1.12,2.47-2.49,2.47H7.43c-1.4,0-2.53-1.12-2.53-2.5v-7.12c0-1.35,1.11-2.45,2.47-2.45h12.7l1.58-2.91s-15.31,0-15.31,0Zm23.73,0v17.98h18.27v-3.01h-14.37v-5.03h12.08s0-2.73,0-2.73h-12.08s0-4.31,0-4.31h12.73l1.68-2.9h-18.31,0Zm23.64,0v2.91h8.52v15.07h3.9v-15.07h6.9s1.68-2.91,1.68-2.91h-21Zm71.11,0c-2.92,0-5.29,2.35-5.29,5.24v7.51c0,2.89,2.36,5.24,5.29,5.24h11.88c2.92,0,5.29-2.34,5.29-5.24v-5.1h-10.82v2.91h7.06s0,1.97,0,1.97c0,1.37-1.12,2.47-2.48,2.46h0s-9.88,0-9.88,0c-1.37,0-2.49-1.1-2.49-2.46v-7.15c0-1.36,1.12-2.47,2.49-2.47h12.69l1.58-2.91s-15.31,0-15.31,0Zm23.73,0v17.98h18.27v-3.01h-14.37v-5.03h12.08s0-2.73,0-2.73h-12.08s0-4.31,0-4.31h12.67l1.68-2.9h-18.25Z"/>
</svg>