<?xml version="1.0" encoding="UTF-8"?>
<svg id="Layer_1" data-name="Layer 1" xmlns="http://www.w3.org/2000/svg" viewBox="0 0 841.89 294.76">
  <defs>
    <style>
      .cls-1 {
        fill: #b7b7b7;
      }
    </style>
  </defs>
  <path class="cls-1" d="m429.85,156.36c-257.87,34.72-384.38-27.96-384.38-27.96h17.36l4.21-8.67,6.06-12.46,20.5-42.19,3.04,35.06,1.02,11.79,1.43,16.47h44.42l43.49-39.2,20.3-18.31h.01l4.88-4.4-1.73,3.68-6.97,14.83-20.4,43.4h44.04l26.49-56.16,5.9-12.52h.01l4.75-10.08h-74.56l-37.71,34.99-17.18,15.94-.67-11.14-2.39-39.79H57.72L25.43,117.17C-62.91,55.51,109.68,17.98,109.68,17.98c160.67-30.85,288.07-14.3,357.06.02,24.64,5.12,41.83,9.95,50.43,12.23,8.43,2.24,23.87,9.41,37.7,19.41h-125.87l-5.82,13.74c-15.91-11.4-68.9-13.74-68.9-13.74h-75.75l-3.33,7.1-5.34,11.37-28.43,60.54,70.29-.37s44.6,3.23,79.66-9.37c35.07-12.59,40-33.87,36.09-50.04-.42-1.74-1.59-3.32-3.35-4.76h44.2l-31.49,63.48h47.83l30.13-62.97h43.06l.88-2.63,2.48-7.45c6.82,5.63,12.84,11.94,16.86,18.63,0,0,.01,0,.01,0,17,28.32-1.9,63.48-148.23,83.18Z"/>
  <path class="cls-1" d="m36.7,127.45c.23.26.47.54.72.82-.85-.44-1.27-.68-1.27-.68l.55-.14Z"/>
  <polygon class="cls-1" points="841.89 271.76 829.17 294.76 416.06 294.76 428.6 271.76 841.89 271.76"/>
  <path class="cls-1" d="m400.74,185.98c-271.97,14.92-345.34-37.47-363.32-57.71,14.87,7.84,160.39,79.64,417.96,34.22,115.6-20.39,142.3-51.37,134.78-80.26,89.95,76.36-189.42,103.75-189.42,103.75Z"/>
  <path class="cls-1" d="m357.65,106.69c-8.53,3.4-17.64,5.07-26.82,5.07h-33.4l20.42-47.14h40.33c3.03,0,6.06.3,8.99,1.05,15.6,3.95,15.87,15.29,15.87,15.29.69,12.61-13.4,20.95-25.39,25.73Z"/>
  <path class="cls-1" d="m541.68,210.49h-8.42l-32.69,31.4c0-6.93-7.58-13.73-8.06-14.15.33.22,5.23,3.36,11.64-5.51,6.64-9.19-7.66-11.74-7.66-11.74h-22.21l-11.75,34.47h8.17l6.64-17.24c17.36,4.98,15.15,16.79,15.15,16.79h13.38l10.28-10.28h25.28l3.31,10.73h8.43l-11.49-34.47Zm-62.81,10.72l2.04-6.38h12.77s9.19,2.81,1.28,6.38c-7.92,3.58-16.09,0-16.09,0Zm42.13,6.51l13.02-12.89,4.85,12.89h-17.87Z"/>
  <polygon class="cls-1" points="555.47 210.49 570.28 230.4 565.68 244.96 574.11 244.96 578.96 230.4 606.79 210.49 596.83 210.49 575.89 225.3 564.91 210.49 555.47 210.49"/>
  <polygon class="cls-1" points="431.13 233.3 452.23 233.3 452.23 229.81 431.64 229.81 431.13 233.3"/>
  <polygon class="cls-1" points="404.35 227.31 419.21 244.96 409.68 244.96 398.21 231.41 377.94 244.96 367.3 244.96 394.15 226.62 380.49 210.49 390.19 210.49 400.26 222.45 417.77 210.49 429.51 210.49 404.35 227.31"/>
</svg>