<?xml version="1.0" encoding="UTF-8"?>
<svg id="Layer_1" data-name="Layer 1" xmlns="http://www.w3.org/2000/svg" viewBox="0 0 841.89 181.28">
  <defs>
    <style>
      .cls-1 {
        fill: #b7b7b7;
      }
    </style>
  </defs>
  <path class="cls-1" d="m810.67,140.18c-.46.1-.92.23-1.36.39-1.15,1.35-2.26,2.77-4.37,2.45-16.08,1.94-28.56-3.11-35.67-18.27-1.25-2.67-1.81-5.65-2.69-8.49.79-3.84.82-7.67-.02-11.51,1.44-10.93,7.59-18.57,17.03-23.91,1.06-1.58,2.66-1.56,4.3-1.44,1.84-.08,3.68-.16,5.53-.24,3.44-.94,6.89-.91,10.33-.01,12.42,1.23,21.24,7.22,25.86,18.97.54,1.38.85,3.19,2.63,3.86v2.84c-1.67,11.78-.25,23.63-.77,35.44-.01.92-.39,1.66-1.13,2.21-3.51,1.39-6.76-.13-10.09-.86-2.7-5.11-1.09-10.61-1.43-15.93-.41-6.32.54-12.68-.6-18.96-1.88-8.07-6.09-13.49-15.06-14.85-10.31-1.55-19.35,2.47-22.4,10.79-3.57,9.75,1,21.83,10.13,26.22,5.92,2.85,11.56,1.68,16.91-1.85,2.38-1.57,4.48-4.86,8.03-1.93,1.62,3.3,1.15,6.76.77,10.21-.89,2.91-2.5,4.97-5.92,4.85Z"/>
  <path class="cls-1" d="m830.69,141.61c.03-10.08.01-20.17.14-30.25.03-2.22-.94-4.76,1.39-6.54v36.93c-.56.48-1.07.41-1.53-.14Z"/>
  <path class="cls-1" d="m48.52,23.65c-3.17.18-6.9.86-7.88,3.7-1.13,3.31,2.79,5.13,5.03,6.81,2.25,1.69,3.83,3.28,1.39,5.18-2.58,1.99-1.55,8.42-7.36,6.28-8.57-3.16-17.06-6.52-24.12-12.58-4.24-3.64-7.26-8.16-5.29-13.55,1.88-5.14,7.17-7.19,12.32-8.29,2.06-.44,4.21-.32,5.95-1.77,14.75.08,29.51.21,44.26.22,56.89.03,113.78,0,170.67.02,2.85,0,5.7.15,8.55.23,2.93,3.34,6.12,4.85,10.03,1.42,1.56-.1,3.29-.91,4.36,1.02,5.37,4.62,4.47,11.31,5.8,17.26-3.47,3.78-6.24,8.35-11.54,10.06-4.28-1.81-8.12-.13-12.13,1.25-3.8,1.31-7.63,1.76-6.61-4.42,4.48-1.89,4.98-5.64,4.2-9.65-.76-3.88-4.25-2.71-6.84-3.1-2.97-.96-5.94-.99-8.91.02-5.19.09-6.27,1.94-4.41,7.07,3.89,10.74,6.95,21.78,10.34,32.7-.16,4.1-2.34,8.72,2.97,11.41,2.28,1.45.77,3.83,1.43,5.68-3.79,10.1-2.18,19.14,5.33,27.05,2.86,8.73,3.03,17.78,3.21,26.83.92,3.42.91,6.83,0,10.25-.12,1.84-.24,3.68-.36,5.52-3.61,2.97-5.47,6.64-5.11,11.41.15,2.06-.35,4.11-1.75,5.8-5.54,2.84-11.56.34-17.25,1.49-9.96-1.68-19.96.52-29.93-.22-1.65-.12-3.31-.03-4.97-.02-3.54.04-7.06-1.21-8.31-4.19-1.26-3,2.64-4.12,4.48-5.92,3.61,1.59,6.28.73,9.71-1.59,4.77-3.23,10-5.97,15.08-8.84,6.55-3.71,6.97-9.01,1.29-13.54-.08-6.55-.16-13.1-.24-19.65-.05-4.37.42-8.79-1.2-13.02,6.63-6.43,5.63-13.37-2.87-19.88-3.8-13.8-7.68-27.58-14.68-40.24-2.72-4.92-6.46-8.95-10.82-12.52-6.53-5.33-14.23-4.32-21.66-3.81-2.97.2-5.35,2.93-6.03,6.15-1.04,4.93-1.83,9.92-2.72,14.88-2.31,4.57-6.46,1.08-9.57,2.15-3.13.3-6.35-.66-9.42.61-4.54.67-8.68-2.05-13.29-1.44-2.57.34-3.67-1.66-3.73-4.15-.06-2.59.19-5.28-.41-7.75-2.95-12.07-18.26-16.7-30.3-9.34-11.83,7.24-17.76,19.04-23.64,30.68-6.62,13.12-11.33,26.98-13.56,41.57-1.89,12.42-1.55,24.76,2.52,36.74,1.69,4.97,4.93,8.59,10.22,10.85,7.31,3.12,14.31,7.05,21.18,11.09,5.13,3.01,4.73,5.46-.6,8.43-1.96,1.09-3.94,1.38-6.12,1.35-5.96-.09-11.93-.08-17.9-.1-4.4-1.05-8.8-1.02-13.19,0-19.55.39-22.14-2.38-21.1-22.57.83-4.78.84-9.56,0-14.33.06-18.14,4.53-35.39,10.44-52.4,5.94-17.1,15.31-32.37,25.02-47.5,1.63-2.53,5.19-5.57-1.22-6.73-2.91-.9-5.83-.83-8.75-.04Z"/>
  <path class="cls-1" d="m572.93,128.88c7.02,2.04,13.45,6.49,21.55,3.16,9.06-3.72,14.61-14.31,12.79-26.27-1.32-8.69-9.46-15.08-19.29-15.15-13.6-.09-20.75,6.96-20.78,20.62-.04,17.72-.06,35.44.03,53.16.02,4.22.48,7.53-5.97,7.42-6.04-.1-5.59-3.12-5.57-7.1.09-18.19.74-36.42-.2-54.57-.68-13.05,9.88-27.4,23.23-30.19,19.88-4.16,38.32,6.71,40.11,27.54.96,2.47.96,4.94,0,7.41-.09,2.29-.18,4.59-.27,6.88.17.92.23,1.84.04,2.76-.89,3.07-2.14,5.89-5.34,7.29-2.42,3.34-5.59,5.9-8.89,8.31-2.7,2.95-5.78,4.76-9.97,3.24-7.69,2.49-14.57-.19-21.39-3.28-1.32-3.74-1.18-7.48-.09-11.24Z"/>
  <path class="cls-1" d="m387.92,97.75c.3-2.46-.09-5.1,1.88-7.12,5.48-2.72,9.84-6.83,14.09-11.09,8.21-.46,16.58-1.68,22.75,5.84,1.56,1.89,3.01.46,4.08-.81,3.06-3.64,7.11-5.07,11.69-5.41,2.97-.92,5.93-.92,8.9,0,8.79,1.14,14.14,6.38,17.27,14.26,2.25,1.26,2.89,3.31,2.84,5.69-2,10.23-.41,20.57-.98,30.84-.22,3.92.87,7.93-.78,11.76l.08-.05c-3.44,1.24-6.89,1.18-10.34.01-1.15-13.68.55-27.42-.88-41.09-.63-.96-1.26-1.91-1.88-2.87-1.99-2.7-4.67-4.76-6.86-7.27-9.05-2.69-14.93,1.93-14.59,11.46-1.01,12.79-.64,25.59-.14,38.4-.24.88-.73,1.58-1.48,2.11-3.46.39-6.9.58-10.15-1.03-.77-13.14.62-26.33-.72-39.46-.62-6.49-3.78-11.01-10.23-12.98-2.06-2.18-3.94-1.89-5.67.42-5.67,2.38-8.03,6.68-7.46,12.67-1.35,13.18.24,26.43-.84,39.61-3.45,1.22-6.9,1.25-10.35-.02l.07.08c-1.51-14.65-.92-29.31-.32-43.97Z"/>
  <path class="cls-1" d="m511.33,144.83c-8.77-2.49-17.24-5.27-23.5-12.65-2.42-2.86-3.99-6.19-6.42-8.95-1.99-1.88-2.12-4.28-1.97-6.77,1.02-3.4,1.8-6.82.56-10.35,2.36-11.54,8.05-20.54,19.41-25.35,2.43-1.03,4.84-1.72,7.47-1.6,2.97-.93,5.93-.91,8.9-.01,11.9-.1,19.67,6.37,25.6,15.78,1.21,1.91,1.97,3.21-1.01,4.79-11.78,6.23-23.4,12.78-34.97,19.4-3.95,2.26-5.66.94-7.68-2.67-1.98-3.54-1.56-5.02,2.1-6.74,6.98-3.28,13.79-6.96,20.52-10.74,1.88-1.06,5.39-1.26,4.94-4.26-.42-2.86-3.62-3.29-6.06-4-1.11-.32-2.37-.18-3.55-.25-3.35.38-6.65,1.95-10.07.38-9.53,3.34-15.15,12.8-13.47,22.7,1.92,11.31,9.86,19.86,19.49,19.52,8.01-.29,14.86-3.78,19.12-11.2,1.61-2.8.15-7.75,4.66-8.29,3.1-.37,6.41.97,9.58,1.54-2.02,14.41-11.15,22.74-23.62,28.32-3.14,1.86-6.39,2.96-10.03,1.42Z"/>
  <path class="cls-1" d="m299.46,79.16c17.32,1.68,25.86,12.89,26.93,29.23.72,11.01.1,22.1.08,33.16-3.77,1.52-7.57,1.28-11.38.14h.1c-1.79-9.52-.31-19.13-.83-28.69-.15-2.78.62-5.64-.61-8.34-.82-9.75-11.81-17.22-22.63-15.39-11.92,2.01-19.07,9.77-18.96,20.59.12,11.56,8.91,22.1,20.16,23.15,6.15.58,11.16-2.89,15.48-7.08,4.59,3.3,1.84,7.48,1.4,11.38-13.33,11.78-34.57,5.88-42.93-8.95-11.16-19.79-3.62-43.01,17.95-48.71,1.57-.42,3.28-.34,4.93-.49,3.44-.91,6.89-.92,10.33,0Z"/>
  <path class="cls-1" d="m750.8,131.87c2.29,6.71,7.34,10.12,14.05,11.53,1.26,3.35.96,6.71.12,10.09-3.01,1.92-5.89,1.83-8.62-.54-5.78-2.26-10.94-5.51-14.12-10.86-2.15-3.62-3.7-3.18-7.27-1.56-17.33,7.89-37.54-.45-38.61-22.9,1.47-12.3-.41-24.7.97-37,3.55-.94,7.09-1.14,10.62.15.48,12.77.73,25.54-.14,38.3,2.13,7.64,9.5,14.42,15.27,14.06,6.65-.42,13.12-7.18,14.69-15.37,1.77-12.34-.38-24.8,1.11-37.15,4.03-.85,8.05-1.28,12.05.19.46,17.02.71,34.04-.13,51.06Z"/>
  <path class="cls-1" d="m654.62,141.99c-10.25,1.22-16.26-5.73-22.79-11.66-3.39-2.85-4.52-6.58-4.26-10.84.25-.7.59-1.35,1.03-1.95l.44.12c1.44-12.31-.4-24.7.95-37.01,3.55-.96,7.09-1.12,10.61.12.54,12.28.7,24.56-.09,36.83-.85,2.21,1.52,3.62,1.43,5.64,4.52,2.47,8.47,5.91,13.31,7.88,4.22.02,8.43,0,12.64,0,1.78,0,3.33-.22,3.2-2.56.21-15.95-.48-31.89.37-47.83,3.57-1.13,7.14-1.2,10.7.06.56,20.29.57,40.58-.01,60.87-9.16,1.45-18.34.87-27.53.33Z"/>
  <path class="cls-1" d="m365.24,141.99c-17.19,1.12-30.77-14.91-31.14-30.39-.39-16.44,11.12-31.9,29.51-31,4.33-1.1,8.68-.69,13.04-.22,1.17,2.95,1.03,5.92.1,8.9l-.03-.03c-3.22,1.6-6.82-.21-10.07,1.12-19.12,2.34-22.58,18.43-18.59,28.32,3.33,8.25,10.24,11.53,18.46,12.95,3.41-.75,6.81-.9,10.21.08l-.08.11c1.21,3.34.92,6.7.16,10.08-3.85.91-7.71.76-11.57.09Z"/>
  <path class="cls-1" d="m241.95,36.5c.66,5.41,3.59,3.95,6.97,2.51,3.91-1.66,8.23-5.83,11.77.66-4.44,3.92-9.78,6.21-15.29,8.13-5.52,1.92-11.01-2.02-10.18-7.69.48-3.3,4.44-2.42,6.74-3.61Z"/>
  <path class="cls-1" d="m246.06,107.67c-4.24.05-6.39-2.01-6.98-6.21-.54-3.89-1.46-7.74-2.42-11.56-1.05-4.2,0-7.35,4.06-9.28,3.02,8.78,5.15,17.72,5.33,27.05Z"/>
  <path class="cls-1" d="m242.07,167.48c-.02-3.23,0-6.47-.07-9.7-.1-4.71,1.87-7.5,6.93-7.5.05,6.65.07,13.29-6.86,17.21Z"/>
  <path class="cls-1" d="m681.78,141.52c0-20.27,0-40.54,0-60.81.39-.57.79-.55,1.19,0,.07,20.28.14,40.56.21,60.84-.48.72-.95.68-1.4-.03Z"/>
  <path class="cls-1" d="m272.22,29.61c-.85-.77-2.53-1.69-2.42-2.28,1.03-5.52-2.79-9.89-3.38-14.97,9.18,3.32,10.45,7.09,5.8,17.26Z"/>
  <path class="cls-1" d="m403.89,79.54c-2.54,6.38-6.76,10.68-14.09,11.09,2.32-6.66,7.31-9.99,14.09-11.09Z"/>
  <path class="cls-1" d="m469.67,141.71c.11-14.66.22-29.32.34-43.97,2.88.7,2.33,2.4,1.25,4.25-.01,11.07.02,22.13-.08,33.2-.02,2.23.89,4.79-1.51,6.53Z"/>
  <path class="cls-1" d="m458.54,100.59c2.6,6.76.81,13.77,1.15,20.65.33,6.74.09,13.52.11,20.28-.46.72-.92.73-1.41.03.05-13.65.1-27.3.15-40.95Z"/>
  <path class="cls-1" d="m435.61,137.49c-.5,1.41.43,3.42-1.76,4.12.04-11.01.04-22.01.16-33.02.02-2.26-.76-4.73,1.19-6.68.14,11.86.28,23.71.42,35.57Z"/>
  <path class="cls-1" d="m422.72,101.93c2.52,3.89,1.03,8.19,1.15,12.28.27,9.11.15,18.23.19,27.35-.49.7-.99.7-1.49.02.05-13.22.1-26.43.15-39.65Z"/>
  <path class="cls-1" d="m398.14,141.52c0-10.94-.02-21.88.05-32.82.02-2.25-.72-4.7,1.16-6.66.06,13.17.12,26.34.18,39.51-.48.69-.94.71-1.39-.03Z"/>
  <path class="cls-1" d="m697.65,80.74c-.03,10.07-.02,20.14-.12,30.21-.02,2.26.74,4.73-1.17,6.69-.08-11.27-.17-22.55-.2-33.82,0-1.54-.55-3.38,1.47-4.29.45.26.61.53.46.8-.15.27-.29.41-.44.41Z"/>
  <path class="cls-1" d="m239.31,74.95c-7.16-1.41-7.79-3.84-2.97-11.41,2.07,3.53,2.71,7.42,2.97,11.41Z"/>
  <path class="cls-1" d="m262.06,11.33c-.4,3.75-3.03,4.22-6.06,3.96-3.35-.28-4.04-2.57-3.96-5.38,3.59-1.21,6.61,1.49,10.03,1.42Z"/>
  <path class="cls-1" d="m670.27,130.21c.44.09.88.1,1.32.02-5.97,3.46-12.4.89-18.59,1.4.53-.49,1.05-.99,1.58-1.48,5.23.02,10.46.04,15.69.06Z"/>
  <path class="cls-1" d="m406.81,89.37c.07-2.35.93-4.27,3.6-4.16,2.32.1,1.94,2.17,2.07,3.74-1.89.14-3.78.28-5.67.42Z"/>
  <path class="cls-1" d="m309.19,137.32c-.39-3.8,1.64-7.9-1.4-11.38.97-.98,2.56-1.34,2.6.16.1,3.75,2.01,7.81-1.21,11.22Z"/>
  <path class="cls-1" d="m376.6,80.74c-4.33-.05-8.66-.1-13-.14,4.15-2.57,8.65-1.03,13.01-1.07.43.27.57.55.42.81-.15.26-.29.4-.44.4Z"/>
  <path class="cls-1" d="m572.93,128.88c.03,3.75.06,7.49.09,11.24-3.04-3.58-1.17-7.62-1.08-11.49,0-.06.33-.21.45-.16.2.08.36.27.54.42Z"/>
  <path class="cls-1" d="m672.01,80.73c-.15-.45-.17-.91-.05-1.37,3.66.56,7.66-1.66,11.01,1.34,0,0-.59,0-.59,0,0,0-.59,0-.59.01-3.26,0-6.51.02-9.77.02Z"/>
  <path class="cls-1" d="m739.34,80.73c-.15-.45-.16-.9-.05-1.36,3.7.02,7.41.04,11.11.06.08.44.07.88-.05,1.31-3.67,0-7.34,0-11.01-.01Z"/>
  <path class="cls-1" d="m766.55,104.76c1.85,3.83,1.9,7.67.02,11.51,0-3.84-.01-7.67-.02-11.51Z"/>
  <path class="cls-1" d="m376.6,80.74c.03-.4.03-.81.02-1.21,2.52,3.22,2.2,6.47.13,9.75-.05-2.85-.1-5.69-.15-8.54Z"/>
  <path class="cls-1" d="m378,141.57l-.71.07s-.71-.11-.71-.11c.02-3.23.05-6.47.07-9.7,2.91,2.91.88,6.49,1.34,9.74Z"/>
  <path class="cls-1" d="m697.65,80.74c-.04-.4-.05-.81-.02-1.21,3.27-.03,6.53-.07,9.8-.1.1.44.09.88-.04,1.31-3.25,0-6.5,0-9.75,0Z"/>
  <path class="cls-1" d="m366.65,90.37c3.14-2.25,6.72-.74,10.07-1.12-3.09,2.69-6.69.96-10.07,1.12Z"/>
  <path class="cls-1" d="m481.08,116.28c-.49-.98-.97-1.95-1.46-2.93.13-2.41.25-4.82.38-7.23,2.4,3.17.8,6.77,1.08,10.16Z"/>
  <path class="cls-1" d="m766.17,153.06h-.66s-.64-.17-.64-.17c0-3.16,0-6.32,0-9.48,2.93,2.88.93,6.43,1.31,9.65Z"/>
  <path class="cls-1" d="m376.73,131.72c-3.4-.03-6.81-.06-10.21-.08,3.42-1.92,6.82-2.06,10.21.08Z"/>
  <path class="cls-1" d="m230.4,23.77c2.96-1.94,5.93-2.12,8.91-.02-2.97,0-5.94.01-8.91.02Z"/>
  <path class="cls-1" d="m618.85,114.93c0-2.47,0-4.94,0-7.41,2.08,2.47,2.07,4.94,0,7.41Z"/>
  <path class="cls-1" d="m153.01,146.04c2.69,5.21,8.44,6.56,12.75,9.69,2.13,1.55,4.03,3.25,5.86,5.04,2.76,2.72,2.2,5.1-1.4,6.42-2.16.79-4.53,1.46-6.8,1.47-20.07.11-40.15.08-60.22.04-1.39,0-2.93-.03-4.15-.59-2.54-1.15-5.43-2.24-5.9-5.5-.46-3.18,2.56-3.6,4.44-4.75,3.19-1.95,6.52-3.66,9.8-5.47,6.41-3.53,10.28-8.18,10.14-16.2-.38-21.74-.01-43.49-.23-65.23-.04-4.51,1.04-6.24,5.88-6.02,7.61.34,15.25-.03,22.87-.1,2.19-.46,4.42-1.34,6.29.77.29,24.25.03,48.5.15,72.74.01,2.56-.52,5.18.53,7.68Z"/>
  <path class="cls-1" d="m131.53,62.11c-18.94-1.46-37.93-2.51-56.45-7.12-1.47-.37-5.13.06-3.74-3.15,1.07-2.48.99-7.35,5.91-5.88,30.09,9,61.02,5.85,91.69,6.24,6.1.08,12.11-1.97,18.33-1.38,2.4.23,4.57.06,6.02,2.68,2.35,4.23,1.68,5.53-3.21,5.92-14.19,1.14-28.4,1.59-42.63,1.62-2.24.88-4.59.3-6.88.47-3.01.29-6.1-.65-9.04.62Z"/>
  <path class="cls-1" d="m212.16,134.65c3.57-.42,6.67.75,6.55,4.53-.14,4.62-3.16,8.22-6.92,10.83-5.48,3.81-12.04,5.73-17.2,10.34-2.2,1.96-6.67,3.56-8.52-1.73.25-.76.7-1.2,1.57-.97,2.59.41,4.39-.73,5.65-2.89,1.46-.94,2.91-1.88,4.37-2.82,2.63.5,4.38-.73,5.66-2.86,1.41-1.08,2.82-2.15,4.22-3.23,3.96-1.48,5.66-4.18,4.61-8.37,0-.95,0-1.9,0-2.84Z"/>
  <path class="cls-1" d="m207.86,82.1c4.91.48,9.46,6.44,9.72,13.05.18,4.56-2.26,6.83-6.86,6.84-.96-6.63-1.91-13.26-2.87-19.88Z"/>
  <path class="cls-1" d="m153.01,146.04c-2.05-2.2-1.21-4.92-1.22-7.42-.09-24.46-.1-48.92-.13-73.38.48-.68.97-.68,1.45,0-.04,26.93-.07,53.87-.11,80.8Z"/>
  <path class="cls-1" d="m212.16,137.5c6.53,3.03-1.51,5.02-.76,8.11.51,2.08-2.3,2.05-3.86.26,1.91-2.59,4.1-5.03,4.61-8.37Z"/>
  <path class="cls-1" d="m23.04,130.32c1.85,4.78,1.9,9.56,0,14.33,0-4.78,0-9.56,0-14.33Z"/>
  <path class="cls-1" d="m141.7,48.25c3.34-1.03,7.23,1.24,10.25-1.68,1.28,1.57.73,2.67-1.1,2.78-3.02.18-6.06.02-9.1,0-.47-.22-.64-.46-.5-.71.14-.26.29-.39.44-.39Z"/>
  <path class="cls-1" d="m44.15,167.23c4.4-2.15,8.8-2.18,13.19,0-4.4,0-8.8,0-13.19,0Z"/>
  <path class="cls-1" d="m203.33,149.09c-.08,4.46-2.19,5-5.66,2.86,1.89-.95,3.77-1.91,5.66-2.86Z"/>
  <path class="cls-1" d="m193.3,154.77c-.07,4.46-2.19,4.97-5.65,2.89,1.88-.96,3.77-1.92,5.65-2.89Z"/>
  <path class="cls-1" d="m48.52,23.65c2.93-1.85,5.84-1.87,8.75.04-2.92-.01-5.83-.03-8.75-.04Z"/>
  <path class="cls-1" d="m131.53,62.11c2.67-2.43,5.82-.97,8.78-1.08.45.27.59.53.43.77-.16.24-.32.36-.48.36-2.91-.02-5.82-.03-8.73-.05Z"/>
  <path class="cls-1" d="m141.7,48.25c.02.37.04.73.06,1.1-2.93,0-5.86-.02-8.79-.02,2.65-2.43,5.79-.98,8.74-1.07Z"/>
  <path class="cls-1" d="m140.27,62.15c.02-.38.03-.75.05-1.13,2.38,0,4.76,0,7.14,0-2.13,2.02-4.76.94-7.19,1.13Z"/>
  <path class="cls-1" d="m820.86,141.53l-.71.1s-.71-.07-.71-.07c.04-12.25.09-24.5.13-36.75,2.65,8.17.58,16.56,1.15,24.84.27,3.94.1,7.92.13,11.87Z"/>
  <path class="cls-1" d="m814.78,124.77c2.78,3.63,2.1,7.42.49,11.24-.16-3.75-.33-7.49-.49-11.24Z"/>
</svg>