<?xml version="1.0" encoding="UTF-8"?>
<svg id="Layer_1" data-name="Layer 1" xmlns="http://www.w3.org/2000/svg" viewBox="0 0 202 54.98">
  <defs>
    <style>
      .cls-1 {
        fill: #b7b7b7;
      }
    </style>
  </defs>
  <g>
    <path class="cls-1" d="m28.83,53.13v-10.12h.85v4.42h2.57c.14,0,.43-.15.57-.29.14-.14.28-.28.43-.43.14-.14.29-.42.43-.85l.86-2.71h.85l-.71,2.71c-.14.57-.29,1-.57,1.28-.28.29-.57.57-.86.72.57.14.86.28,1.14.71.29.29.43.71.57,1.29l1,3.56h-.86l-1-3.28c-.14-.28-.28-.57-.43-.85-.14-.28-.29-.42-.43-.57-.14-.15-.43-.28-.57-.28h-2.71v4.99h-1.14v-.29h0Z"/>
    <path class="cls-1" d="m40.1,45.85c.71,0,1.28.15,1.71.57.43.28.57,1,.57,1.85v4.28h1v.57c-.14.15-.28.15-.57.15h-.57c-.28,0-.43,0-.57-.15-.14-.14-.14-.42-.14-.71h0c-.28.28-.57.43-.86.57-.28.14-.43.28-.71.28-.14,0-.43.15-.57.15h-.43c-.43,0-.71,0-1-.15-.28-.15-.43-.28-.71-.42-.14-.15-.28-.43-.28-.72s-.14-.42-.14-.71c0-.71.28-1.14.71-1.57.43-.29,1-.57,1.71-.57l2.28-.15v-.57c0-.71-.14-1.14-.28-1.43-.29-.28-.71-.43-1.29-.43-.43,0-.71,0-1.14.15-.43.15-.71.15-1.14.28l-.14-.57c.43-.14.85-.28,1.28-.43.43-.28.86-.28,1.29-.28Zm-.57,3.85c-.57,0-1,.15-1.28.42-.29.29-.43.57-.43,1s.14.86.43,1.14c.28.28.57.28,1.14.28.28,0,.71-.14,1.14-.28.43-.15.71-.42,1.14-.71v-2l-2.14.15Z"/>
    <path class="cls-1" d="m49.08,53.13v-3.56c-.43.29-.86.43-1.28.57-.43.15-.86.15-1.14.15-.43,0-.86,0-1.14-.15-.28-.14-.43-.28-.57-.57-.14-.14-.29-.43-.29-.71v-2.86h.86v2.71c0,.28.14.42.14.57.15.15.29.28.43.28.14.15.43.15.71.15s.71,0,1.14-.15c.43-.14.86-.28,1.14-.57v-2.99h.86v7.27h-.86s0-.15,0-.15Z"/>
    <path class="cls-1" d="m55.07,45.85c.43,0,.86,0,1.14.15.28.14.57.28.86.57.14.14.43.43.43.72.14.28.14.57.29.71,0,.28.14.43.14.71v1h-5c0,.42,0,.71.14,1.14,0,.28.15.71.29.85.14.28.43.42.71.57.29.15.71.28,1.14.28s.86,0,1.14-.14c.28-.15.71-.29,1.14-.43l.29.57c-.43.29-.85.43-1.28.57-.43.15-.86.15-1.28.15-.57,0-1.14-.15-1.57-.28s-.71-.43-1-.86c-.29-.28-.43-.71-.43-1.14-.14-.43-.14-.86-.14-1.43v-.71c0-.29.14-.57.14-.86.15-.29.15-.57.29-.86.14-.28.29-.57.57-.71.29-.15.43-.43.86-.57h1.14Zm0,.57c-.43,0-.71.14-1,.28-.29.15-.43.29-.71.58-.14.28-.29.57-.43.85-.14.29-.14.72-.14,1h4.14c0-.43,0-.71-.15-1,0-.28-.14-.57-.28-.85s-.28-.43-.57-.58c-.28-.28-.57-.28-.86-.28Z"/>
    <path class="cls-1" d="m60.49,49.56c0,.43,0,.86.14,1.14,0,.42.14.71.43,1,.14.28.43.42.71.57.29.15.71.28,1.14.28s.71,0,1.14-.14c.28-.15.71-.15,1-.43l.28.57c-.28.15-.71.29-1.14.43-.43.14-.86.14-1.28.14-.57,0-1-.14-1.43-.28-.43-.15-.71-.43-1-.72-.28-.28-.43-.71-.57-1.14-.14-.43-.14-.86-.14-1.43v-.85c0-.28.14-.57.14-.85.14-.29.14-.57.28-.86.14-.29.28-.57.57-.72.29-.15.57-.43.86-.43.29-.15.71-.15,1.14-.15.29,0,.71,0,1,.15.29,0,.71.15,1,.28l-.29.57c-.29-.14-.71-.14-1-.28h-.71c-.86,0-1.43.28-1.71.85-.43.58-.57,1.29-.57,2.28Z"/>
    <path class="cls-1" d="m68.91,46.57h-2.57v-.71h5.85v.71h-2.57v6.56h-.86v-6.56h.14Z"/>
    <path class="cls-1" d="m76.75,45.85c.71,0,1.28.15,1.71.57.43.28.57.71.57,1.28,0,.29,0,.57-.14.86-.14.29-.43.57-.86.71.29.15.43.15.57.28.14.15.29.29.43.43s.14.28.14.57v.57c0,.29,0,.57-.14.86-.14.28-.28.43-.43.57-.14.15-.43.29-.71.43s-.57.14-.86.14h-3.43v-7.27h3.14Zm-2.14.71v2.43h2.14c.43,0,.86-.14,1.14-.28.28-.28.43-.57.43-.85,0-.43-.14-.72-.43-.86-.28-.29-.71-.29-1.29-.29h-2s0-.14,0-.14Zm0,3.14v2.71h2.29c.28,0,.57,0,.71-.15.14-.15.43-.15.57-.28.14-.14.29-.28.29-.43s.14-.28.14-.57-.14-.72-.43-1c-.28-.28-.71-.43-1.28-.43h-2.29v.15Z"/>
    <path class="cls-1" d="m87.17,49.56c0,.43,0,.86-.14,1.29-.14.42-.29.85-.43,1.14-.29.28-.57.57-1,.86-.43.14-.86.28-1.43.28s-1-.14-1.43-.28c-.43-.15-.71-.43-.86-.86-.29-.28-.43-.71-.43-1.14-.15-.43-.15-.86-.15-1.43,0-.43,0-1,.15-1.43.14-.43.28-.86.57-1.29.29-.28.57-.71,1-.85.43-.28.86-.28,1.43-.28s1,.14,1.43.28c.43.28.71.57.86.85.29.29.43.72.43,1.15-.14.71,0,1.28,0,1.71Zm-.86,0c0-.28,0-.71-.14-1.14,0-.43-.14-.72-.29-1-.14-.29-.43-.58-.57-.72-.29-.14-.57-.28-1.14-.28s-.86.14-1.14.28c-.28.15-.57.43-.71.72-.14.28-.29.57-.29,1s-.14.71-.14,1.14,0,.71.14,1.14c0,.28.14.71.29,1,.14.28.43.42.71.71.29.14.71.28,1.14.28s.85-.15,1-.28c.29-.15.43-.43.71-.71.14-.28.29-.57.29-1,0-.43.14-.72.14-1.14Z"/>
    <path class="cls-1" d="m96.29,45.85c.71,0,1.29.15,1.71.57.43.28.57.71.57,1.28,0,.29,0,.57-.14.86-.14.29-.43.57-.86.71.28.15.43.15.57.28.15.15.29.29.43.43s.14.28.14.57v.57c0,.29,0,.57-.14.86-.14.28-.28.43-.43.57-.14.15-.43.29-.71.43-.29.14-.57.14-.86.14h-3.43v-7.27h3.14Zm-2.28.71v2.43h2.14c.43,0,.86-.14,1.14-.28.29-.28.43-.57.43-.85,0-.43-.14-.72-.43-.86-.29-.29-.71-.29-1.29-.29h-2s0-.14,0-.14Zm0,3.14v2.71h2.28c.29,0,.57,0,.71-.15.14-.15.43-.15.57-.28.14-.14.28-.28.28-.43s.14-.28.14-.57-.14-.72-.43-1c-.29-.28-.71-.43-1.29-.43h-2.28v.15h0Z"/>
    <path class="cls-1" d="m109.13,53.13v-3.56c-.42.29-.85.43-1.28.57-.43.15-.86.15-1.14.15-.43,0-.85,0-1.14-.15-.29-.14-.43-.28-.57-.57-.14-.14-.29-.43-.29-.71v-2.86h.86v2.71c0,.28.14.42.14.57.15.15.29.28.43.28.14.15.43.15.72.15s.71,0,1.14-.15c.43-.14.86-.28,1.14-.57v-2.99h.86v7.27h-.86v-.15h0Z"/>
    <path class="cls-1" d="m116.98,53.13v-5.99h0c-.14.15-.28.43-.43.72-.14.28-.42.57-.57,1-.28.42-.57.85-.85,1.28-.29.43-.57.86-.85,1.29-.29.43-.57.71-.72,1.14-.28.29-.43.57-.57.86h-.71v-7.28h.85v5.99h0c.15-.28.29-.42.43-.71.15-.29.29-.43.43-.71.14-.15.29-.43.43-.71s.43-.57.57-.86c.15-.28.43-.71.71-1,.28-.28.43-.57.57-.85.14-.28.28-.58.42-.72.15-.14.15-.28.28-.28h.86v7.27h-.86v-.43h0Z"/>
    <path class="cls-1" d="m120.69,49.56c0,.43,0,.86.15,1.14,0,.42.14.71.43,1,.14.28.42.42.71.57.29.15.72.28,1.14.28s.71,0,1.14-.14c.29-.15.71-.15,1-.43l.28.57c-.28.15-.71.29-1.14.43-.43.14-.86.14-1.28.14-.57,0-1-.14-1.43-.28-.42-.15-.71-.43-1-.72-.28-.28-.42-.71-.57-1.14-.15-.43-.15-.86-.15-1.43v-.85c0-.28.15-.57.15-.85.15-.29.15-.57.28-.86.14-.29.28-.57.57-.72.29-.15.57-.43.86-.43.28-.15.71-.15,1.14-.15.29,0,.72,0,1,.15.29,0,.72.15,1,.28l-.28.57c-.29-.14-.72-.14-1-.28h-.72c-.85,0-1.43.28-1.71.85-.43.58-.58,1.29-.58,2.28Z"/>
    <path class="cls-1" d="m129.1,46.57h-2.57v-.71h5.85v.71h-2.57v6.56h-.71v-6.56h0Z"/>
    <path class="cls-1" d="m139.66,49.56c0,.43,0,.86-.15,1.29-.15.42-.29.85-.42,1.14-.29.28-.57.57-1,.86-.43.14-.86.28-1.57.28-.57,0-1-.14-1.42-.28-.43-.15-.72-.43-.86-.86-.28-.28-.43-.71-.43-1.14-.14-.43-.14-.86-.14-1.43,0-.43,0-1,.14-1.43.15-.43.29-.86.57-1.29.29-.28.57-.71,1-.85.43-.28.86-.28,1.43-.28s1,.14,1.43.28c.43.28.71.57.86.85.28.29.42.72.42,1.15,0,.71.15,1.28.15,1.71Zm-.86,0c0-.28,0-.71-.14-1.14,0-.43-.15-.72-.29-1-.14-.29-.42-.58-.57-.72-.28-.14-.57-.28-1.14-.28-.43,0-.86.14-1.15.28-.28.15-.57.43-.71.72-.14.28-.28.57-.28,1s-.15.71-.15,1.14,0,.71.15,1.14c0,.28.15.71.28,1,.15.28.43.42.71.71.28.14.71.28,1.15.28s.85-.15,1-.28c.28-.15.43-.43.71-.71.15-.28.29-.57.29-1,0-.43.14-.72.14-1.14Z"/>
    <path class="cls-1" d="m148.36,53.13v-5.7h0c-.15.14-.15.43-.28.57-.15.14-.15.43-.29.57,0,.15-.14.43-.42.71-.15.43-.43.71-.57,1.14-.14.43-.42.85-.57,1.28-.14.42-.28.71-.43.85h-.57l-2.14-4.13-.57-1h0v5.85h-.72v-7.27h.86c.14.28.28.57.43.85.14.28.43.72.57,1.14.14.43.43.86.57,1.28.29.43.43.85.57,1.14l.72,1.28h0l1-2c.14-.15.28-.43.42-.85.15-.43.43-.72.57-1.15.14-.42.42-.71.57-1.14.14-.28.28-.57.28-.57h.85v7.27h-.85v-.15h0Z"/>
    <path class="cls-1" d="m158.49,45.85c.71,0,1.28.15,1.71.57.42.28.57.71.57,1.28,0,.29,0,.57-.15.86-.14.29-.42.57-.85.71.28.15.43.15.57.28.14.15.28.29.42.43.15.14.15.28.15.57v.57c0,.29,0,.57-.15.86-.15.28-.28.43-.42.57-.15.15-.43.29-.72.43-.28.14-.57.14-.85.14h-3.43v-7.27h3.14Zm-2.29.71v2.43h2.15c.42,0,.85-.14,1.14-.28.28-.28.43-.57.43-.85,0-.43-.15-.72-.43-.86-.29-.15-.71-.29-1.29-.29h-2v-.14Zm0,3.14v2.71h2.29c.29,0,.57,0,.71-.15.15-.15.43-.15.57-.28.15-.14.28-.28.28-.43s.15-.28.15-.57-.15-.72-.43-1-.71-.43-1.28-.43h-2.29v.15h0Z"/>
    <path class="cls-1" d="m167.77,53.13v-5.99h0c-.15.15-.29.43-.43.72-.15.28-.43.57-.57,1-.29.42-.57.85-.86,1.28-.29.43-.57.86-.86,1.29-.28.43-.57.71-.71,1.14-.29.29-.43.57-.57.86h-.71v-7.28h.86v5.99h0c.14-.28.29-.42.43-.71.14-.29.28-.43.42-.71.15-.15.28-.43.43-.71.15-.28.42-.57.57-.86.15-.28.43-.71.71-1,.29-.28.43-.57.57-.85.15-.28.29-.58.43-.72.14-.14.14-.28.29-.28h.85v7.27h-.85v-.43h0Z"/>
    <path class="cls-1" d="m176.61,52.42h.57v2.57h-.72v-2h-5.7v2h-.72v-2.57h.57c.29-.15.42-.43.71-.86.14-.28.28-.71.43-1.14.14-.43.14-1,.14-1.43,0-.57.14-1.14.14-1.71l.15-1.43h4.42v6.57h0Zm-3.71-5.85v.86c0,.57,0,1.14-.14,1.57,0,.43-.15,1-.15,1.43-.15.43-.15.85-.28,1.14-.15.29-.29.57-.57.86h3.99v-5.85h-2.86Z"/>
    <path class="cls-1" d="m181.88,45.85c.43,0,.86,0,1.15.15.28.14.57.28.85.57.15.14.43.43.43.72.14.28.14.57.29.71,0,.28.14.43.14.71v1h-4.99c0,.42,0,.71.14,1.14,0,.28.15.71.29.85.14.28.42.42.71.57.29.15.71.28,1.14.28s.85,0,1.14-.14c.28-.15.71-.29,1.14-.43l.29.57c-.43.29-.86.43-1.29.57-.43.15-.86.15-1.28.15-.57,0-1.14-.15-1.57-.28-.42-.14-.71-.43-1-.86-.28-.28-.42-.71-.42-1.14-.15-.43-.15-.86-.15-1.43v-.71c0-.29.15-.57.15-.86.15-.29.15-.57.28-.86.14-.28.29-.57.57-.71.29-.15.43-.43.86-.57h1.13Zm0,.57c-.43,0-.71.14-1,.28-.29.15-.43.29-.71.58-.15.28-.29.57-.43.85-.15.29-.15.72-.15,1h4.14c0-.43,0-.71-.15-1,0-.28-.15-.57-.28-.85-.14-.28-.28-.43-.57-.58-.14-.28-.43-.28-.86-.28Z"/>
  </g>
  <g>
    <path class="cls-1" d="m104.86,6.72c-4-.14-7.71-1.42-10.7-1.42-3.99,0-5.42,1.57-5.99,1.71-1.29.28.29-7.13,8.99-6.85,5,.14,6.99,1.43,10.98,1.57,3.99.14,5.57-1.57,5.99-1.71,1.29-.43,1.57,6.99-9.26,6.7Z"/>
    <path class="cls-1" d="m54.93,30.55c-2.28,0-3.71-1.43-3.85-3.57l-.14-1.57s-.14.57-1,1.57c-1,1.28-2.99,3.57-6.42,3.57-1,0-2-.43-2.57-1.14-.85-1-1.28-2.57-1-4.28l.71-5.99c.43-3.85-.57-5.28-1.71-5.85.71-.86,2.28-1.85,4-1.85,1.28,0,2.42.43,3.28,1.29.86.86,1.14,2.14,1,3.57l-.86,7.42c-.14,1.14,0,2,.57,2.57.28.43.71.57,1.28.57,1.43,0,3.14-1.71,3.57-4.71l1.28-9.99h6.28c-.28,2.28-1.28,8.42-1.57,10.56-.43,3.85.29,5.14,1.43,5.85-.86,1-2.57,2-4.28,2h0Z"/>
    <path class="cls-1" d="m64.49,27.55c-1.57-1.85-2.28-4.14-2-6.7.71-5.28,5.28-9.41,10.7-9.7,2.85,0,5.13.71,6.28,2,.57.71.85,1.43.71,2.43-.14,1.43-1.57,3.14-3.42,3.14-.71,0-1.43-.14-1.85-.28v-.14c0-.29.14-.57.14-.86.14-1.14-.14-2.14-.71-2.85-.43-.43-1-.71-1.57-.71-2.57,0-4.28,3.57-4.42,6.85,0,2,.43,3.57,1.43,4.71,1,1,2.43,1.43,4.14,1.57,2.57,0,4.99-1.43,4.99-1.14-.14,1.71-3.85,4.57-8.27,4.57-2.28-.14-4.57-1.14-6.13-2.86Z"/>
    <path class="cls-1" d="m105.86,15.14c.42,0,1,.14,1.28.57.43.57.72,1.43.57,2.57l-.85,7.42c-.14,1.42.14,2.71,1,3.56.71.86,1.85,1.29,3.13,1.29,1.57,0,3.29-1,3.99-1.85-1.14-.71-2.14-2-1.71-5.85l.71-5.99c.29-1.71-.14-3.28-1-4.14-.71-.71-1.57-1.14-2.71-1.14-2.42,0-5.71,1.85-7.42,4.99,0-3.14-1.57-4.99-3.85-4.99-2.85,0-5.56,2.28-7.42,5.28v-1.57c-.14-2.28-1.71-3.56-3.99-3.56-1.71,0-3.28,1-3.99,2,1,.71,1.86,2,1.43,5.85-.28,2.14-1.14,8.42-1.57,10.56h6.13s1.43-9.7,1.85-10.98c.57-2.56,2.28-3.71,3.14-3.71.43,0,1,.14,1.28.57.43.57.71,1.43.57,2.57-.15.86-.15,1.85-.29,2.71-.28,2-.86,6.99-1,8.84h6.28c.14-1.71.57-6.99.86-8.99-.14-.43.14-5.85,3.57-5.99Z"/>
    <path class="cls-1" d="m127.54,30.55h-.85c-2.72-.14-5.14-1.43-6.71-3.28-1.57-1.85-2.28-4.28-1.85-6.85.71-4.99,5.14-8.85,10.27-8.85h.71c2.71.14,5.14,1.43,6.7,3.28,1.57,1.85,2.14,4.28,1.86,6.85-.57,5.14-4.85,8.85-10.13,8.85h0Zm1-16.41c-2.43,0-3.99,2.43-4.57,6.56-.14,1.57-.28,4.42,1,5.99.57.71,1.29,1,2.14,1.14h.29c2.43,0,3.99-2.28,4.56-6.56.29-2.71,0-4.85-1-5.99-.57-.71-1.28-1-2.14-1.14-.14,0-.28,0-.28,0h0Z"/>
    <path class="cls-1" d="m149.22,30.4c-5.99,0-8.13-4.71-8.13-8.84,0-7.7,4.56-18.55,12.98-18.69h.14c2.72,0,4.85,1.85,4.99,4.14.15,2.71-2.56,6.27-10.69,7.13h-.57l-.15.57-.14.71-.43,1.43,1.43-.43c1-.43,2.29-.57,3.42-.57,2.99,0,6.13,1.28,6.42,4.85.14,2.57-.57,4.71-2.14,6.56-1.57,2.14-4.14,3.14-7.13,3.14h0Zm.57-12.27c-1,0-1.85.29-2,.29l-.42.14-.15.43c-.28,1.43-1,5.99.57,7.85.43.57,1.15.86,1.86.86,2.57,0,3.71-3.57,3.71-5,.15-2.57-.85-4.14-2.99-4.57h-.57Zm3-11.84c-2,0-3.28,3.28-3.85,5.71l-.43,1.71,1.57-.71c.43-.14,4.13-2,4.56-4.71,0-.28,0-1-.43-1.43-.28-.43-.71-.57-1.42-.57h0Z"/>
    <path class="cls-1" d="m170.33,30.55c-2.72,0-4.71-.71-5.85-2.14-1.57-1.85-1.57-4.28-1.43-5.28.29-2.14,1.14-9.13,1.29-10.98h5.99c-.15.71-.29,2-.43,3.57l-.14,1,1-.14c1.14-.14,2.14-.28,2.99-.28,2,0,3.7.71,4.85,2.14,1,1.14,1.57,2.71,1.28,4.56-.28,4.14-4.56,7.56-9.55,7.56h0Zm.85-12.27c-.28,0-.57,0-.85.14l-.57.14-.15.57-.57,4.99c0,1,0,2.14.72,3,.28.28.71.57,1.57.57,1.85,0,2.85-1.57,3.28-4.85.15-1.42-.15-2.71-.85-3.56-.72-.57-1.57-1-2.57-1h0Z"/>
    <path class="cls-1" d="m191.59,30.55c-2.57,0-4.71-1-6.28-2.85-1.57-1.85-2.28-4.14-2-6.7.71-5.42,5.56-9.7,11.27-9.7,3.43,0,5.28,1.29,6.13,2.28.86,1,1.29,2.28,1.29,3.42-.57,4.71-5.57,5.42-8.56,5.42-2.43,0-4.14-1-4.14-1,0,0-.28,5.56,5.56,5.71,2.57.14,5-1.28,5-1.14-.28,1.43-3.71,4.57-8.27,4.57h0Zm.57-15.98c-2.43,1.28-2.86,5.71-2.86,5.71,0,0,2.14.57,4.14-.14,1.14-.43,2.14-1.14,2.71-2.28.71-1.57-.14-2.99-1-3.42-1.29-.71-2.71,0-3,.14Z"/>
    <path class="cls-1" d="m33.53,23.27c1.57-12.98,2-17.4,2.14-18.69h-6.85l-1.14,8.84c-.43,2.86-2.56,4.56-4.42,4.56-.71,0-1.28-.28-1.71-.71-.28-.43-.71-1.14-.71-2.43l1.28-10.84c-1.42-.57-6.56-2.28-11.7-2.28C6,1.73,2.86,3.01,1.01,5.72c-1.57,2.28-1.43,5.99,1.28,7.85,1,.71,2.28,1.14,3.42,1.14,2.14,0,3.85-1.14,4.42-1.85.28-.43.43-.57.43-.71l-.14-.14c-.28-.14-.71-.57-1.14-1-1-1-1.14-2.43-.71-3.71.71-1.57,2.43-2.57,4.42-2.57.43,0,.86,0,1.28.14l.72.14-.14.71-1.43,10.56c-.28,1.85.14,3.28,1.14,4.42,1,1,2.43,1.71,4,1.71,3.56,0,6.42-2.99,6.99-3.85,1-1.43,1.43-2.57,1.43-2.57l-1.29,9.56c-.28,1.85,0,3.14.86,4.14.86,1,2.28,1.28,3.28,1.28,1.85,0,3.99-1.14,4.85-2.14-.57-.71-1.43-2-1.14-5.56Z"/>
  </g>
</svg>